<svg height="512" width="456" xmlns="http://www.w3.org/2000/svg"><path d="m182.3744507 500.8088989-138.2993889-79.6038818c-27.1840649-15.6472168-44.0724792-44.853241-44.0750618-76.2187195v-171.2321777c-.0032289-31.6412354 16.0682735-60.4591141 42.990799-77.0866318l135.9623108-83.930603c26.8295288-16.5597115 60.427475-17.0007782 87.6819305-1.1546526l151.3150635 88.0028839c23.3294067 13.5684662 38.053772 38.7609558 38.0498962 65.746109v180.4338837c-.0038757 29.3274231-16.112793 56.4811401-41.6662598 70.8677979l-150.1746216 84.5647583c-27.2061309 14.5622224-54.4679412 14.3706941-81.7846679-.3887664zm11.9824829-14.8674927c18.2845154 10.0107727 37.4979553 11.1163025 57.9575195.2753906l155.3789062-87.4960938c17.9736328-10.1201172 29.140625-29.2207031 29.1416016-49.8466797v-186.6855467c.0029297-18.359375-9.8554688-35.4990234-25.7265625-44.730957l-157.0668945-91.3286134c-21.4335938-10.8588867-42.3813477-10.5371094-62.2661133.9584961l-140.9204101 86.9863282c-19.8461914 12.2573242-31.6928711 33.5019531-31.6899414 56.828125v177.168457c.0009766 22.8427734 12.3007812 44.1123047 32.0981445 55.5078125zm7.5478516-441.6083984-140.5419922 86.7583008c-13.9008789 8.5854492-22.199707 23.4677734-22.1977539 39.809082v177.1699219c.0009766 15.7089844 8.4594727 30.3369141 22.0756836 38.1738281l143.0927734 82.3632812c11.737793 6.7558594 26.3647461 6.8242188 38.1694336.1806641l155.3779297-87.4951172c11.6904297-6.5820312 18.953125-19.0048828 18.9541016-32.4199219v-186.6860351c.0009766-11.2636719-6.0458984-21.777832-15.7822266-27.440918l-156.2998047-90.9018554c-15.090332-7.5664063-29.1113281-7.4057617-42.8481445.4887695zm-78.8826218 348.6969605v-274.0599442h57.3327866v99.8264694h95.1181946v-99.8264694h57.5046997v274.0599365h-57.5046997v-119.836792h-95.1181946v119.836792h-57.3327866z"/></svg>